# xmcd CD database file
#
# Track frame offsets:
#	150
#	13670
#	27634
#	41194
#	57078
#	77581
#	96769
#	109364
#	127137
#	141421
#	156069
#	177259
#
# Disc length: 2605 seconds
#
# Revision: 0
# Processed by: cddbd v1.5.1PL0 Copyright (c) Steve Scherf et al.
# Submitted via: CDex 1.51
#
DISCID=a70a2b0c
DTITLE=Gelbison - See The World
DYEAR=2004
DGENRE=Rock
TTITLE0=All The Rage
TTITLE1=Holy
TTITLE2=Keep It Clean
TTITLE3=I Don't Want To Die Here With You
TTITLE4=The Snow
TTITLE5=All Your Scars
TTITLE6=Summer Of Love
TTITLE7=Had To Lose
TTITLE8=This Is A Warning
TTITLE9=Poets
TTITLE10=See The World
TTITLE11=Be Broken To Be Whole
EXTD=YEAR: 2004
EXTT0=
EXTT1=
EXTT2=
EXTT3=
EXTT4=
EXTT5=
EXTT6=
EXTT7=
EXTT8=
EXTT9=
EXTT10=
EXTT11=
PLAYORDER=
